<svg width="24" height="25" viewBox="0 0 24 25" fill="none" xmlns="http://www.w3.org/2000/svg">
<path d="M9.7876 13.0952C10.2627 13.7303 10.8688 14.2558 11.5648 14.6361C12.2609 15.0164 13.0306 15.2425 13.8217 15.2992C14.6128 15.3558 15.4069 15.2417 16.15 14.9645C16.8931 14.6873 17.5679 14.2535 18.1287 13.6925L21.4474 10.3738C22.455 9.33062 23.0125 7.93342 22.9999 6.48315C22.9873 5.03288 22.4056 3.64559 21.38 2.62006C20.3545 1.59452 18.9672 1.01281 17.5169 1.00021C16.0667 0.987607 14.6695 1.54512 13.6263 2.55268L11.7235 4.44435" stroke="white" stroke-width="2" stroke-linecap="round" stroke-linejoin="round"/>
<path d="M14.2125 10.8827C13.7374 10.2476 13.1313 9.72204 12.4352 9.34176C11.7392 8.96148 10.9695 8.73534 10.1784 8.67868C9.38727 8.62202 8.59322 8.73617 7.85009 9.01338C7.10696 9.29059 6.43214 9.72437 5.87141 10.2853L2.55268 13.604C1.54512 14.6472 0.987607 16.0444 1.00021 17.4947C1.01281 18.945 1.59452 20.3323 2.62006 21.3578C3.64559 22.3833 5.03288 22.965 6.48315 22.9777C7.93342 22.9903 9.33061 22.4327 10.3738 21.4252L12.2655 19.5335" stroke="white" stroke-width="2" stroke-linecap="round" stroke-linejoin="round"/>
<rect x="1.70383" y="2.59931" width="2.98125" height="27.3886" rx="1.49062" transform="rotate(-39.4795 1.70383 2.59931)" fill="white" stroke="#555555"/>
</svg>
